<?xml version="1.0" encoding="UTF-8" standalone="no"?>
<svg
   xmlns:dc="http://purl.org/dc/elements/1.1/"
   xmlns:cc="http://creativecommons.org/ns#"
   xmlns:rdf="http://www.w3.org/1999/02/22-rdf-syntax-ns#"
   xmlns:svg="http://www.w3.org/2000/svg"
   xmlns="http://www.w3.org/2000/svg"
   xmlns:sodipodi="http://sodipodi.sourceforge.net/DTD/sodipodi-0.dtd"
   xmlns:inkscape="http://www.inkscape.org/namespaces/inkscape"
   height="93"
   width="138"
   viewBox="0 0 138 93"
   id="svg2"
   version="1.1"
   inkscape:version="0.91 r13725"
   sodipodi:docname="twitter.svg">
  <metadata
     id="metadata11">
    <rdf:RDF>
      <cc:Work
         rdf:about="">
        <dc:format>image/svg+xml</dc:format>
        <dc:type
           rdf:resource="http://purl.org/dc/dcmitype/StillImage" />
        <dc:title></dc:title>
      </cc:Work>
    </rdf:RDF>
  </metadata>
  <defs
     id="defs9" />
  <sodipodi:namedview
     pagecolor="#ffffff"
     bordercolor="#666666"
     borderopacity="1"
     objecttolerance="10"
     gridtolerance="10"
     guidetolerance="10"
     inkscape:pageopacity="0"
     inkscape:pageshadow="2"
     inkscape:window-width="974"
     inkscape:window-height="613"
     id="namedview7"
     showgrid="false"
     inkscape:zoom="0.921875"
     inkscape:cx="-29.949163"
     inkscape:cy="36.976167"
     inkscape:window-x="0"
     inkscape:window-y="0"
     inkscape:window-maximized="0"
     inkscape:current-layer="svg2"
     fit-margin-top="0"
     fit-margin-left="0"
     fit-margin-right="0"
     fit-margin-bottom="0" />
  <g
     id="g4"
     transform="matrix(1,0,0,1.0040141,-197.00001,-175.0138)">
    <path
       id="path1"
       transform="matrix(4.3125,0,0,4.3125,197,174.31409)"
       d="m 22.154999,0 c 1.888,-1.7628554e-7 3.594009,0.65798962 4.792007,1.7119909 C 28.442001,1.4689947 29.848007,1.0179904 31.115997,0.39599609 30.626007,1.662995 29.585007,2.724992 28.229004,3.3959822 29.557007,3.2650008 30.822998,2.9739849 32,2.5419931 c -0.880005,1.0879981 -1.992996,2.0430157 -3.276001,2.8069932 0.013,0.2330017 0.019,0.4670105 0.019,0.7020264 0,7.1649813 -6.603988,15.4279863 -18.679001,15.4279863 -3.7079922,0 -7.1579968,-0.897981 -10.063995,-2.436983 0.51399994,0.04999 1.0370026,0.07599 1.5660019,0.07599 3.0759964,0 5.9069977,-0.867004 8.1529922,-2.321014 -2.871994,-0.04398 -5.2969894,-1.612002 -6.1319961,-3.765995 0.401001,0.064 0.8120041,0.09799 1.2350006,0.09799 0.598999,0 1.1790009,-0.06699 1.7290039,-0.190979 -3.0029983,-0.498016 -5.2659988,-2.688996 -5.2659988,-5.3160115 0,-0.02301 0,-0.04599 9.994e-4,-0.067993 0.8849945,0.4060058 1.897995,0.6489873 2.973999,0.6780095 C 2.4980041,7.25899 1.3390075,5.5999925 1.3390075,3.7180028 c 0,-0.9930117 0.3239975,-1.9250038 0.889,-2.72500701 C 5.4660034,4.2729971 10.302994,6.4309875 15.759995,6.6580078 15.647995,6.2610046 15.589996,5.8470027 15.589996,5.4219844 15.589996,2.4279947 18.529007,-1.7628554e-7 22.154999,0 Z"
       inkscape:connector-curvature="0"
       style="fill:#262626" />
  </g>
</svg>
