<?xml version="1.0" encoding="UTF-8" standalone="no"?>
<svg
   xmlns:dc="http://purl.org/dc/elements/1.1/"
   xmlns:cc="http://creativecommons.org/ns#"
   xmlns:rdf="http://www.w3.org/1999/02/22-rdf-syntax-ns#"
   xmlns:svg="http://www.w3.org/2000/svg"
   xmlns="http://www.w3.org/2000/svg"
   xmlns:sodipodi="http://sodipodi.sourceforge.net/DTD/sodipodi-0.dtd"
   xmlns:inkscape="http://www.inkscape.org/namespaces/inkscape"
   height="136.93063"
   width="138"
   viewBox="0 0 138 136.93063"
   id="svg2"
   version="1.1"
   inkscape:version="0.91 r13725"
   sodipodi:docname="new.svg">
  <metadata
     id="metadata11">
    <rdf:RDF>
      <cc:Work
         rdf:about="">
        <dc:format>image/svg+xml</dc:format>
        <dc:type
           rdf:resource="http://purl.org/dc/dcmitype/StillImage" />
        <dc:title></dc:title>
      </cc:Work>
    </rdf:RDF>
  </metadata>
  <defs
     id="defs9" />
  <sodipodi:namedview
     pagecolor="#ffffff"
     bordercolor="#666666"
     borderopacity="1"
     objecttolerance="10"
     gridtolerance="10"
     guidetolerance="10"
     inkscape:pageopacity="0"
     inkscape:pageshadow="2"
     inkscape:window-width="1001"
     inkscape:window-height="662"
     id="namedview7"
     showgrid="false"
     fit-margin-top="0"
     fit-margin-left="0"
     fit-margin-right="0"
     fit-margin-bottom="0"
     inkscape:zoom="0.921875"
     inkscape:cx="103.47457"
     inkscape:cy="71.429856"
     inkscape:window-x="0"
     inkscape:window-y="0"
     inkscape:window-maximized="0"
     inkscape:current-layer="svg2" />
  <g
     id="g4"
     transform="translate(-197,-196.46532)">
    <path
       id="path1"
       transform="matrix(4.3125041,0,0,4.3125041,197,196.46532)"
       d="m 16.14947,14.377985 c 0.699036,0 0.999023,0.399016 0.999023,1.298003 l -2.097045,0 c 0,-0.398987 0.200012,-0.699005 0.399047,-0.898987 0.199952,-0.29901 0.399964,-0.399016 0.698975,-0.399016 z m 6.98999,-1.097992 -0.998962,3.794005 c -0.100037,0.199982 -0.100037,0.398987 -0.100037,0.699006 0,-0.300019 0,-0.499024 -0.09998,-0.598999 l -0.798035,-3.794006 -1.870354,0 1.570366,5.691007 1.897034,0 0.898987,-3.395018 c 0.09998,-0.199981 0.09998,-0.398987 0.09998,-0.699005 0,0.300018 0,0.499024 0.099,0.699005 l 0.899048,3.395018 1.896973,0 1.697998,-5.791013 -1.697998,0 -0.698975,3.794005 c 0,0.199982 -0.100036,0.398987 -0.100036,0.699006 0,-0.300019 -0.099,-0.598999 -0.099,-0.699006 l -0.898987,-3.794005 z m -6.98999,-0.100006 c -0.799011,0 -1.497986,0.299011 -2.096985,0.799011 -0.598999,0.598999 -0.798035,1.298003 -0.798035,2.295989 0,0.899018 0.299012,1.697998 0.798035,2.19702 0.5,0.498993 1.297974,0.798981 2.197022,0.798981 0.898986,0 1.597961,-0.100007 2.096985,-0.399994 l 0,-1.298003 c -0.499024,0.300019 -1.099,0.498993 -1.697999,0.498993 -0.998046,0 -1.497009,-0.398987 -1.597045,-1.298004 l 3.794006,0 0,-0.797973 c 0,-0.899018 -0.199951,-1.598022 -0.698975,-2.097015 -0.499023,-0.498993 -1.098022,-0.699005 -1.997009,-0.699005 z m -11.5819702,-2.296996 0,0.100006 0,8.187984 1.6969605,0 0,-4.492978 0,-1.298004 c 0.1000366,0.199005 0.2000122,0.398987 0.4000244,0.699005 l 3.3939823,5.091977 1.89801,0 0,-8.187984 -1.697998,0 0,4.49301 0,1.098999 C 10.158503,16.374993 9.9594676,16.174981 9.859492,15.876 L 6.6644847,10.882991 Z M 19.54449,0 c 0.299987,-3.7231075e-8 0.598999,0.10000603 0.799011,0.39898643 l 2.096985,2.79601967 3.494018,0.1000059 c 0.498963,0 0.898987,0.3989866 0.998963,0.7989802 l 0.598999,3.4940172 3.095031,1.7979731 c 0.398987,0.1990051 0.598999,0.6990055 0.498963,1.1980275 l -1.197998,3.394988 1.897033,2.994994 c 0.299988,0.399018 0.199952,0.899018 -0.199035,1.298003 l -2.49701,2.395996 0.300049,3.494993 c 0,0.498993 -0.300049,0.899017 -0.699035,1.097992 l -3.394959,0.999023 -1.39801,3.194975 c -0.199036,0.399018 -0.699036,0.699005 -1.098023,0.59903 l -3.494995,-0.699005 -2.695984,2.196991 c -0.199035,0.200012 -0.398986,0.200012 -0.598999,0.200012 -0.199035,0 -0.499023,-0.100006 -0.598999,-0.200012 L 12.75445,29.354999 9.1604563,29.953998 C 8.6614939,30.054004 8.2614695,29.754992 8.0624949,29.354999 L 6.6644847,26.159993 3.2694651,25.161977 C 2.7705027,25.062001 2.4704539,24.562001 2.5704908,24.062978 L 2.8704781,20.568992 0.37346896,18.17199 C -0.02551777,17.87301 -0.12549336,17.37301 0.17449455,16.973992 L 1.9714917,13.978998 0.87249236,10.683986 C 0.67345684,10.183987 0.87249248,9.6849937 1.3724924,9.4859886 L 4.4674632,7.6879849 4.9664866,4.1939983 c 0.099976,-0.4999997 0.5,-0.7990107 0.9989624,-0.7990107 L 9.4594676,3.295012 11.556452,0.49899289 C 11.856501,0.10000603 12.355464,-3.7231075e-8 12.75445,0.20001201 L 15.950495,1.5979913 19.145503,0.100006 C 19.244502,-3.7231075e-8 19.444453,-3.7231075e-8 19.54449,0 Z"
       inkscape:connector-curvature="0"
       style="fill:#262626" />
  </g>
</svg>
