<?xml version="1.0" encoding="UTF-8" standalone="no"?>
<svg
   xmlns:dc="http://purl.org/dc/elements/1.1/"
   xmlns:cc="http://creativecommons.org/ns#"
   xmlns:rdf="http://www.w3.org/1999/02/22-rdf-syntax-ns#"
   xmlns:svg="http://www.w3.org/2000/svg"
   xmlns="http://www.w3.org/2000/svg"
   xmlns:sodipodi="http://sodipodi.sourceforge.net/DTD/sodipodi-0.dtd"
   xmlns:inkscape="http://www.inkscape.org/namespaces/inkscape"
   height="53.673374"
   width="138"
   viewBox="0 0 138 53.673374"
   id="svg2"
   version="1.1"
   inkscape:version="0.91 r13725"
   sodipodi:docname="youtube.svg">
  <metadata
     id="metadata11">
    <rdf:RDF>
      <cc:Work
         rdf:about="">
        <dc:format>image/svg+xml</dc:format>
        <dc:type
           rdf:resource="http://purl.org/dc/dcmitype/StillImage" />
        <dc:title></dc:title>
      </cc:Work>
    </rdf:RDF>
  </metadata>
  <defs
     id="defs9" />
  <sodipodi:namedview
     pagecolor="#ffffff"
     bordercolor="#666666"
     borderopacity="1"
     objecttolerance="10"
     gridtolerance="10"
     guidetolerance="10"
     inkscape:pageopacity="0"
     inkscape:pageshadow="2"
     inkscape:window-width="1036"
     inkscape:window-height="595"
     id="namedview7"
     showgrid="false"
     fit-margin-top="0"
     fit-margin-left="0"
     fit-margin-right="0"
     fit-margin-bottom="0"
     inkscape:zoom="0.921875"
     inkscape:cx="96.966105"
     inkscape:cy="45.255828"
     inkscape:window-x="0"
     inkscape:window-y="0"
     inkscape:window-maximized="0"
     inkscape:current-layer="svg2" />
  <g
     id="g4"
     transform="translate(-197,-154.83669)">
    <path
       id="path1"
       transform="matrix(4.3125,0,0,4.3125,197,154.83669)"
       d="m 24.766052,4.9789982 c 0.260987,0 0.418946,0.2700195 0.474976,0.8160085 0.01099,0.097015 0.01599,0.4899898 0.01599,1.1740098 0,0.6689754 -0.005,1.0569749 -0.021,1.1689744 -0.05597,0.5410157 -0.208984,0.8110037 -0.469971,0.8110037 -0.276001,0 -0.450012,-0.2189932 -0.516052,-0.6629934 -0.026,-0.1430054 -0.03595,-0.5050039 -0.03595,-1.0819993 0,-0.749999 0.005,-1.1889939 0.01996,-1.3119798 0.06702,-0.6070246 0.241028,-0.9130239 0.532043,-0.9130239 z M 6.3460083,4.9070072 c -0.2649536,0 -0.4289551,0.1990051 -0.4949951,0.5979915 -0.019958,0.1270141 -0.031006,0.4640193 -0.031006,1.006011 l 0,0.5509939 c 0,0.7409964 0,1.144011 0.011047,1.2109971 0.055969,0.5310059 0.223999,0.795989 0.5049438,0.795989 0.2810059,0 0.4540406,-0.223998 0.5160523,-0.6839895 0.014954,-0.1019897 0.019959,-0.4750056 0.019959,-1.1179795 l 0,-0.5880122 c 0,-0.6019888 -0.005,-0.9700003 -0.019959,-1.0929857 C 6.7850342,5.1320133 6.6170044,4.9070072 6.3460083,4.9070072 Z M 28.578003,4.8770084 c 0.225037,0 0.373047,0.1170044 0.450012,0.3460083 0.04602,0.1419978 0.07098,0.3819881 0.07098,0.722991 l 0,0.2550044 -1.026978,0 c 0,-0.056 0,-0.111999 -0.005,-0.1740107 l -0.005,-0.080994 c -0.01501,-0.361999 0.026,-0.6369929 0.118042,-0.8299856 0.08099,-0.15802 0.213989,-0.2390137 0.397949,-0.2390137 z M 8.7470093,3.9930067 l 1.0270386,0 0,3.9060016 c 0,0.3219905 0.020996,0.5509944 0.057007,0.6889949 0.065979,0.2350158 0.1989741,0.3580007 0.3979491,0.3580007 0.210022,0 0.353027,-0.1329946 0.425049,-0.3890066 0.04095,-0.1529846 0.06097,-0.3979797 0.06097,-0.7449946 l 0,-3.818996 1.067993,0 0,5.9789972 -1.041992,0 0,-0.5929861 c -0.219971,0.5009756 -0.541992,0.7509752 -0.9669799,0.7509752 -0.6849976,0 -1.0270386,-0.4799791 -1.0270386,-1.4400001 z M 19.25,3.9820204 l 0,4.6659803 c 0,0.9550161 0.342041,1.4349953 1.021057,1.4349953 0.42395,0 0.740967,-0.2510067 0.959961,-0.7510058 l 0,0.5920096 1.041992,0 0,-5.9419794 -1.066955,0 0,3.7929954 c 0,0.3469839 -0.02106,0.5969839 -0.05701,0.7399893 -0.07105,0.2609863 -0.21405,0.3879995 -0.42804,0.3879995 -0.193969,0 -0.326965,-0.1170034 -0.393982,-0.3569936 -0.03497,-0.1329956 -0.05102,-0.3630066 -0.05102,-0.6790157 l 0,-3.8849749 z M 6.3460083,3.8350177 c 0.684021,0 1.1490479,0.3219905 1.3840332,0.9599905 0.157959,0.4289851 0.2340088,1.1589951 0.2340088,2.1910066 0,1.0310045 -0.07605,1.761992 -0.2340088,2.1909767 C 7.4950562,9.8100166 7.0300293,10.132008 6.3460083,10.132008 5.6570435,10.132008 5.197998,9.8100166 4.9630127,9.17101 4.8050537,8.7419949 4.7280273,8.0170193 4.7280273,6.9860148 c 0,-1.0270066 0.077026,-1.7620215 0.2349854,-2.1910066 0.2349853,-0.638 0.6940308,-0.9599905 1.3829956,-0.9599905 z M 28.609009,3.8240008 c -0.586975,0 -1.010987,0.2090144 -1.270996,0.6230154 -0.164002,0.25 -0.265992,0.6219783 -0.312012,1.1069937 -0.02496,0.2399898 -0.03998,0.6379995 -0.03998,1.2049851 0,0.7050162 0.01502,1.1790147 0.03998,1.4349957 0.05102,0.5770264 0.174011,1.0160208 0.363037,1.3170156 0.244995,0.3829947 0.643005,0.5719897 1.195007,0.5719897 0.531006,0 0.919007,-0.1589962 1.174012,-0.4699999 0.25,-0.3119812 0.37799,-0.8119803 0.37799,-1.4960012 l 0,-0.117004 c -0.005,-0.050995 -0.005,-0.086975 -0.005,-0.112976 l -0.996032,0 c 0,0.7760005 -0.178955,1.164 -0.536011,1.164 -0.23999,0 -0.397949,-0.1940003 -0.474976,-0.5819998 -0.03601,-0.1890259 -0.05103,-0.5050044 -0.05103,-0.9439993 0,-0.1889949 0,-0.3170161 0.01001,-0.3829951 l 2.078003,0 0,-0.4490047 c 0,-1.1029954 -0.106995,-1.8330059 -0.315979,-2.1950049 C 29.584045,4.0479994 29.171021,3.8240008 28.609009,3.8240008 Z M 0,2.0120215 l 1.2650146,0 0.9240113,2.9920011 0.9130249,-2.9920011 1.2299805,0 -1.5770264,4.5839792 0,3.3749961 -1.1479492,0 0,-3.3749961 z m 23.182007,-0.00101 0,7.9129853 1.011047,0 0,-0.6229849 c 0.167969,0.5209951 0.479981,0.7819811 0.92395,0.7819811 0.541016,0 0.893006,-0.3729855 1.067017,-1.1179796 0.09198,-0.3990164 0.138,-1.0570054 0.138,-1.9810157 0,-0.9549852 -0.04101,-1.623991 -0.122985,-2.011991 -0.16803,-0.7650137 -0.520996,-1.1480089 -1.057007,-1.1480089 -0.422974,0 -0.720032,0.2189937 -0.89801,0.6629935 l 0,-2.4759798 z m -8.200989,0 0,1.3070054 1.307983,0 0,6.6059799 1.132996,0 0,-6.6059799 1.307007,0 0,-1.3070054 z M 16.309021,0 28.834045,0 C 30.585022,0 32,1.4190048 32,3.1650047 l 0,6.1109858 C 32,11.026996 30.585022,12.446 28.834045,12.446 l -12.525024,0 c -1.745972,0 -3.166016,-1.419004 -3.166016,-3.1700095 l 0,-6.1109858 C 13.143005,1.4190048 14.563049,0 16.309021,0 Z"
       inkscape:connector-curvature="0"
       style="fill:#262626" />
  </g>
</svg>
