<?xml version="1.0" encoding="UTF-8" standalone="no"?>
<svg
   height="48"
   width="48"
   version="1.1"
   id="svg8386"
   sodipodi:docname="epd.svg"
   xml:space="preserve"
   inkscape:version="1.2.1 (9c6d41e410, 2022-07-14)"
   xmlns:inkscape="http://www.inkscape.org/namespaces/inkscape"
   xmlns:sodipodi="http://sodipodi.sourceforge.net/DTD/sodipodi-0.dtd"
   xmlns="http://www.w3.org/2000/svg"
   xmlns:svg="http://www.w3.org/2000/svg"><defs
     id="defs8390" /><sodipodi:namedview
     id="namedview8388"
     pagecolor="#ffffff"
     bordercolor="#666666"
     borderopacity="1.0"
     inkscape:showpageshadow="2"
     inkscape:pageopacity="0.0"
     inkscape:pagecheckerboard="0"
     inkscape:deskcolor="#d1d1d1"
     showgrid="false"
     inkscape:zoom="83.5"
     inkscape:cx="9.2035928"
     inkscape:cy="8.2275449"
     inkscape:window-width="2560"
     inkscape:window-height="1377"
     inkscape:window-x="4472"
     inkscape:window-y="-8"
     inkscape:window-maximized="1"
     inkscape:current-layer="svg8386" /><path
     d="M11.1 44q-2.2 0-3.725-1.525T5.85 38.75V32.5h6.35V4l3 3 3-3 2.95 3 3-3 3 3 3-3 3 3 3-3 3 3 3-3v34.75q0 2.2-1.525 3.725T36.9 44Zm25.8-3q1 0 1.625-.625t.625-1.625V9H15.2v23.5h19.45v6.25q0 1 .625 1.625T36.9 41ZM17.85 16.9v-3h12v3Zm0 6.7v-3h12v3Zm16.65-6.7q-.6 0-1.05-.45Q33 16 33 15.4q0-.6.45-1.05.45-.45 1.05-.45.6 0 1.05.45.45.45.45 1.05 0 .6-.45 1.05-.45.45-1.05.45Zm0 6.45q-.6 0-1.05-.45-.45-.45-.45-1.05 0-.6.45-1.05.45-.45 1.05-.45.6 0 1.05.45.45.45.45 1.05 0 .6-.45 1.05-.45.45-1.05.45ZM11.05 41h20.6v-5.5H8.85v3.25q0 1 .625 1.625T11.05 41Zm-2.2 0v-5.5V41Z"
     id="path8384"
     style="stroke:#0fcd8b;stroke-opacity:1;fill:#0fcd8b;fill-opacity:1" /><path
     style="fill:#0fcd8b;fill-opacity:1;stroke:#0fcd8b;stroke-width:0.191617;stroke-opacity:1;paint-order:stroke fill markers"
     d="M 10.404592,40.360686 C 10.099475,40.241467 9.7786314,39.972662 9.6215805,39.704675 9.3949832,39.318016 9.3668301,39.072179 9.3660178,37.473054 L 9.3652695,36 H 20.239521 31.113772 v 2.227545 2.227545 L 20.874251,40.45289 C 10.9747,40.45069 10.62709,40.44769 10.404592,40.36073 Z"
     id="path9499" /><rect
     style="fill:#0fcd8b;fill-opacity:1;stroke:none;stroke-width:0.108565;stroke-dasharray:none;stroke-opacity:1;paint-order:stroke fill markers"
     id="rect10285"
     width="30.949543"
     height="4.0633163"
     x="11.704868"
     y="2.5431921"
     ry="0.061700016"
     rx="0.061700016" /></svg>
