<?xml version="1.0" encoding="UTF-8" standalone="no"?>
<!-- Created with Inkscape (http://www.inkscape.org/) -->

<svg
   width="62.481998mm"
   height="62.530998mm"
   viewBox="0 0 62.481999 62.530998"
   version="1.1"
   id="svg4662"
   inkscape:version="1.2.1 (9c6d41e410, 2022-07-14)"
   sodipodi:docname="elementary_flow_ohne_strich.svg"
   inkscape:export-filename="elementary_flow_ohne_strich.png"
   inkscape:export-xdpi="6.5042734"
   inkscape:export-ydpi="6.5042734"
   xmlns:inkscape="http://www.inkscape.org/namespaces/inkscape"
   xmlns:sodipodi="http://sodipodi.sourceforge.net/DTD/sodipodi-0.dtd"
   xmlns="http://www.w3.org/2000/svg"
   xmlns:svg="http://www.w3.org/2000/svg">
  <sodipodi:namedview
     id="namedview4664"
     pagecolor="#ffffff"
     bordercolor="#000000"
     borderopacity="0.25"
     inkscape:showpageshadow="2"
     inkscape:pageopacity="0.0"
     inkscape:pagecheckerboard="0"
     inkscape:deskcolor="#d1d1d1"
     inkscape:document-units="mm"
     showgrid="true"
     inkscape:zoom="0.73673541"
     inkscape:cx="213.10229"
     inkscape:cy="469.63943"
     inkscape:window-width="2560"
     inkscape:window-height="1377"
     inkscape:window-x="4472"
     inkscape:window-y="-8"
     inkscape:window-maximized="1"
     inkscape:current-layer="layer1">
    <inkscape:grid
       type="xygrid"
       id="grid3174" />
  </sodipodi:namedview>
  <defs
     id="defs4659" />
  <g
     inkscape:label="Ebene 1"
     inkscape:groupmode="layer"
     id="layer1"
     transform="translate(-44.148596,-24.248094)">
    <path
       d="m 58.565298,72.99915 q -3.028774,-3.096039 -4.71141,-7.134355 -1.682635,-4.038314 -1.682635,-8.278548 0,-4.980587 1.749944,-9.119862 1.749946,-4.139273 5.182527,-7.639145 2.557608,-2.490293 6.293064,-4.139273 3.735396,-1.648981 8.615056,-2.557597 4.879591,-0.908623 10.869795,-1.11054 5.990187,-0.20193 13.124539,0.269237 0.53842,6.999744 0.40395,13.023567 -0.13484,6.023818 -1.00959,10.970757 -0.87491,4.946936 -2.557545,8.783332 -1.68265,3.836403 -4.307559,6.461305 -3.432587,3.432571 -7.470895,5.216161 -4.038327,1.783589 -8.615057,1.783589 -4.711368,0 -8.648741,-1.581677 -3.937379,-1.581672 -7.23529,-4.946938 z m 7.268974,-0.403808 q 1.682581,1.14419 3.903687,1.716286 2.22107,0.572095 4.711369,0.572095 3.499889,0 6.83147,-1.447062 3.331597,-1.447062 6.09114,-4.273884 1.884557,-1.951853 3.163342,-5.047896 1.27877,-3.096038 2.052818,-7.168009 0.773981,-4.071965 1.00959,-8.951596 0.23556,-4.879635 -0.03556,-10.398662 -6.259385,-0.134622 -11.239982,0.168256 -4.980597,0.302867 -8.816982,1.110536 -3.836383,0.807661 -6.562241,2.052811 -2.725857,1.245146 -4.408501,3.062388 -2.759536,2.826822 -4.273923,6.023818 -1.514337,3.196998 -1.514337,6.49496 0,3.163343 1.346089,6.696873 1.346088,3.533524 3.36527,5.619986 3.49989,-6.461304 8.413184,-11.643809 4.913225,-5.182506 10.634186,-8.278545 -5.788211,5.047892 -9.422722,10.903452 -3.634459,5.855553 -5.24979,12.787994 z m 0,0 z m 0,0 z"
       id="path12129"
       style="fill:#006f36;fill-opacity:1;stroke:none;stroke-width:1.3461;stroke-opacity:1" />
  </g>
</svg>
