<?xml version="1.0" encoding="UTF-8" standalone="no"?>
<!-- Created with Inkscape (http://www.inkscape.org/) -->

<svg
   width="62.481998mm"
   height="62.530998mm"
   viewBox="0 0 62.481999 62.530998"
   version="1.1"
   id="svg4662"
   inkscape:version="1.2.1 (9c6d41e410, 2022-07-14)"
   sodipodi:docname="product_flow_ohne_strich.svg"
   inkscape:export-filename="product_flow_ohne_strich.png"
   inkscape:export-xdpi="6.5042734"
   inkscape:export-ydpi="6.5042734"
   xmlns:inkscape="http://www.inkscape.org/namespaces/inkscape"
   xmlns:sodipodi="http://sodipodi.sourceforge.net/DTD/sodipodi-0.dtd"
   xmlns="http://www.w3.org/2000/svg"
   xmlns:svg="http://www.w3.org/2000/svg">
  <sodipodi:namedview
     id="namedview4664"
     pagecolor="#ffffff"
     bordercolor="#000000"
     borderopacity="0.25"
     inkscape:showpageshadow="2"
     inkscape:pageopacity="0.0"
     inkscape:pagecheckerboard="0"
     inkscape:deskcolor="#d1d1d1"
     inkscape:document-units="mm"
     showgrid="true"
     inkscape:zoom="0.73673541"
     inkscape:cx="213.10229"
     inkscape:cy="469.63943"
     inkscape:window-width="2560"
     inkscape:window-height="1377"
     inkscape:window-x="4472"
     inkscape:window-y="-8"
     inkscape:window-maximized="1"
     inkscape:current-layer="layer1">
    <inkscape:grid
       type="xygrid"
       id="grid3311" />
  </sodipodi:namedview>
  <defs
     id="defs4659" />
  <g
     inkscape:label="Ebene 1"
     inkscape:groupmode="layer"
     id="layer1"
     transform="translate(-44.148596,-24.248094)">
    <path
       d="M 69.988117,79.714809 68.736133,72.246375 Q 67.722614,71.896331 66.53028,71.22529 65.337947,70.554298 64.443662,69.854134 l -7.09456,3.209097 -5.902157,-10.152412 6.557976,-4.667773 q -0.119029,-0.466772 -0.148955,-1.1086 -0.02784,-0.641828 -0.02784,-1.108592 0,-0.46677 0.02784,-1.108599 0.02784,-0.641827 0.148955,-1.108599 l -6.557976,-4.667773 5.902157,-10.152412 7.15414,3.209096 q 0.834705,-0.700169 2.027038,-1.341991 1.192334,-0.641826 2.205853,-0.991899 l 1.251984,-7.526785 h 11.565846 l 1.251985,7.468443 q 1.013518,0.408442 2.235644,1.02107 1.222194,0.612663 2.056827,1.371162 l 7.154141,-3.209096 5.84257,10.152412 -6.55797,4.551081 q 0.11903,0.525101 0.148955,1.166942 0.02784,0.641828 0.02784,1.166948 0,0.525101 -0.02784,1.137771 -0.02784,0.612663 -0.148955,1.137763 l 6.55797,4.609431 -5.902152,10.152412 -7.154141,-3.209097 q -0.834703,0.700164 -1.997245,1.400334 -1.162543,0.700164 -2.235644,0.991907 l -1.251985,7.468434 z m 5.782923,-16.10382 q 3.21937,0 5.484874,-2.217197 2.265435,-2.217191 2.265435,-5.367938 0,-3.150754 -2.265435,-5.367944 -2.265504,-2.217191 -5.484874,-2.217191 -3.219371,0 -5.484875,2.217191 -2.265433,2.21719 -2.265433,5.367944 0,3.150747 2.265433,5.367938 2.265504,2.217197 5.484875,2.217197 z m 0,-3.500839 q -1.788501,0 -2.980904,-1.196113 -1.192334,-1.196119 -1.192334,-2.888183 0,-1.692076 1.192334,-2.88819 1.192403,-1.196113 2.980904,-1.196113 1.728919,0 2.951114,1.196113 1.222123,1.196114 1.222123,2.88819 0,1.692064 -1.222123,2.888183 -1.222195,1.196113 -2.951114,1.196113 z m 0,-4.084296 z M 73.267069,75.7472 h 5.007941 l 0.834633,-6.53488 q 1.967387,-0.466771 3.755887,-1.458684 1.78857,-0.991905 3.21937,-2.450583 l 6.319507,2.683969 2.265504,-4.025954 -5.604108,-3.967604 q 0.238745,-0.991906 0.417632,-1.983804 0.178884,-0.991907 0.178884,-1.983806 0,-0.991899 -0.148955,-1.983804 Q 89.36441,53.050143 89.0665,52.058244 l 5.604107,-3.967611 -2.265503,-4.02596 -6.319438,2.683976 Q 84.714447,45.173266 82.955738,44.123023 81.19696,43.072781 79.11034,42.839381 l -0.83533,-6.534879 h -5.00787 l -0.834704,6.534879 q -2.026967,0.350044 -3.815538,1.371163 -1.788499,1.021079 -3.219369,2.538105 l -6.259857,-2.683976 -2.265504,4.02596 5.544457,3.967611 q -0.238745,0.991899 -0.3877,1.983806 -0.148956,0.991905 -0.148956,1.983804 0,0.991899 0.148956,1.983806 0.148955,0.991898 0.3877,1.983804 l -5.544457,3.967604 2.265504,4.025954 6.259857,-2.683969 q 1.49045,1.458678 3.279021,2.450583 1.788502,0.991907 3.755886,1.458684 z"
       id="path420"
       style="fill:#066adf;fill-opacity:1;stroke-width:1.17959" />
  </g>
</svg>
