<?xml version="1.0" encoding="UTF-8" standalone="no"?>
<svg
   height="48"
   width="48"
   version="1.1"
   id="svg9962"
   sodipodi:docname="process_unit_prod_final_bicolour_unified_cut.svg"
   inkscape:version="1.2.1 (9c6d41e410, 2022-07-14)"
   inkscape:export-filename="process_prod_system_64.png"
   inkscape:export-xdpi="128"
   inkscape:export-ydpi="128"
   xmlns:inkscape="http://www.inkscape.org/namespaces/inkscape"
   xmlns:sodipodi="http://sodipodi.sourceforge.net/DTD/sodipodi-0.dtd"
   xmlns="http://www.w3.org/2000/svg"
   xmlns:svg="http://www.w3.org/2000/svg">
  <defs
     id="defs9966">
    <clipPath
       clipPathUnits="userSpaceOnUse"
       id="clipPath3520">
      <path
         id="path3522"
         style="fill:#ff0000;fill-opacity:1;fill-rule:nonzero;stroke:none"
         d="M 1.78125,11.59375 V 34.970703 H 33.332031 V 19.310547 c -0.150754,0.01619 -0.301655,0.02814 -0.455078,0.01953 -0.183673,-1.77e-4 -0.367111,-0.0014 -0.550781,0 -0.313651,0.0015 -0.627763,-0.0065 -0.941406,-0.0059 -0.205503,0.0048 -0.409726,0.02044 -0.615235,0.02344 -0.484327,0.007 -0.96814,-0.02577 -1.451172,-0.05664 -0.163556,-0.0095 -0.32671,-0.01727 -0.490234,-0.02734 -0.05776,0.108113 -0.119343,0.214476 -0.177734,0.322266 0.407135,0.08543 0.75422,0.208333 0.310547,0.513671 -0.07855,0.05406 -0.149906,0.11787 -0.234376,0.16211 -0.181927,0.0953 -0.328827,0.105911 -0.527343,0.140625 -0.346546,0.619056 -0.6976,1.234652 -1.060547,1.84375 -0.137693,0.208538 -0.265252,0.424765 -0.41211,0.626953 -0.149456,0.205773 -0.362129,0.473794 -0.580078,0.740234 0.39936,0.02592 0.798561,0.05469 1.197266,0.08984 0.699083,0.06163 1.114757,0.114801 1.574219,0.179687 0.109446,0.005 0.218719,0.0135 0.328125,0.01953 0.438694,-0.204707 0.674268,-0.132171 0.816406,0.05273 0.0045,3.46e-4 0.0091,-3.45e-4 0.01367,0 0.516394,-0.05036 0.31105,-0.05449 0.953125,-0.08398 0.215031,-0.0098 0.429334,-0.01046 0.644531,-0.01563 0.834564,0.009 0.888069,-0.05883 0.455078,1.27539 -0.01559,0.04803 -0.05472,0.07758 -0.09961,0.103516 -0.02795,0.02352 -0.06343,0.04122 -0.105469,0.05469 -0.02043,0.0096 -0.03778,0.0221 -0.05664,0.0332 -0.0081,0.160293 -0.01789,0.316047 -0.02539,0.505859 -1.22e-4,0.0031 5.6e-5,0.0066 0,0.0098 0.0024,5.97e-4 0.0169,0.0014 0.01758,0.002 0.544479,0.458811 0.457042,0.508423 0.388672,0.984375 -0.10605,0.738226 -0.730977,0.889359 -1.0625,0.628906 -0.02718,0.01265 -0.06982,0.02744 -0.15625,0.05273 -0.184752,0.03609 -0.370791,0.05462 -0.558594,0.06641 -0.02137,0.04117 -0.04195,0.08249 -0.06445,0.123046 -0.0357,0.06435 -0.06571,0.122377 -0.0957,0.177735 -0.0099,0.06689 -0.02473,0.120965 -0.06641,0.115234 -0.223537,0.38634 -0.365678,0.402612 -1.121094,-0.451172 -0.01206,-0.01363 -0.01853,-0.0277 -0.02148,-0.04297 -0.05401,-0.01095 -0.107314,-0.02174 -0.160156,-0.03711 -0.222854,-0.06485 -0.435172,-0.168111 -0.666015,-0.207031 -0.02605,-0.0057 -0.05213,-0.01145 -0.07813,-0.01758 -0.03981,0.0099 -0.08759,2.07e-4 -0.142578,-0.0293 -0.03635,0.0017 -0.07297,0.0029 -0.109376,0.0039 -0.0072,1.14e-4 -0.01429,-1.15e-4 -0.02148,0 -0.04989,0.01426 -0.09655,0.01484 -0.140625,0 -0.47697,0.0075 -0.949746,0.01345 -1.423828,-0.0625 -0.08646,-0.01385 -0.170709,-0.04013 -0.255859,-0.06055 -0.263647,-0.06323 -0.239284,-0.05017 -0.332032,-0.08984 -0.677835,-0.03488 -1.356091,-0.06039 -2.035156,-0.0625 -0.02213,-4.39e-4 -0.04426,1.55e-4 -0.06641,0 -0.07366,0.07152 -0.153687,0.07852 -0.261719,0 -0.119904,1.46e-4 -0.240156,-0.0021 -0.359375,-0.01367 -0.10446,-0.01016 -0.198893,-0.01955 -0.287109,-0.0332 -0.09756,0.236337 -0.204059,0.241223 -0.310547,0.140625 -0.331,0.635852 -1.128322,0.466886 -1.0625,-0.509766 0.01344,-0.199431 0.01175,-0.63601 0.167969,-0.794922 0.09943,-0.101146 0.213094,-0.190353 0.335937,-0.265625 0.0072,-0.14706 -0.01835,-0.3172 0.06641,-0.410156 -0.0026,-0.03587 -0.0037,-0.07184 -0.0078,-0.107422 0.0043,-0.07343 0.0035,-0.147048 0.0059,-0.220703 -0.116496,-0.0024 -0.247002,-0.0058 -0.246093,-0.0059 -0.20795,0.03882 -0.436498,0.122844 -0.5625,-0.01367 -0.01353,-3.43e-4 6.68e-4,3.62e-4 -0.01367,0 -0.113626,-0.0029 -0.228177,-0.0047 -0.341797,-0.0078 -0.01682,-5e-4 -0.05558,0.01215 -0.05078,-0.0039 0.04276,-0.143407 0.07325,-0.25934 0.101562,-0.371094 -0.655017,-0.890254 -0.147354,-0.830609 0.289062,-0.816406 0.111716,-0.03787 0.312247,-0.0039 0.732422,-0.002 0.281866,-0.0026 0.563815,4.52e-4 0.845704,0.002 0.02485,-0.0073 0.04974,-0.016 0.07617,-0.02148 0.115882,-0.02403 0.245328,-0.01904 0.357422,0.02148 0.500624,0.0057 1.001659,0.01843 1.501953,0.03711 0.291466,-0.337071 0.831193,-0.983468 1.080078,-1.324218 0.136358,-0.186689 0.257031,-0.385435 0.384766,-0.578126 0.269969,-0.452689 0.532904,-0.908838 0.792969,-1.367187 -0.370418,-0.0776 -0.685583,-0.163076 -1.109375,-0.275391 -0.208656,-0.0553 -0.415792,-0.116752 -0.625,-0.169922 -0.127702,-0.03245 -0.258071,-0.05747 -0.386719,-0.08594 -0.339724,-0.07519 -0.571059,-0.226017 -0.699219,-0.396484 -0.0091,4.84e-4 -0.01825,-6.75e-4 -0.02734,0 -0.4272,0.03176 -0.542339,0.06724 -0.96875,0.148437 -0.915764,0.174385 -1.253342,-0.513635 -0.791016,-0.923828 -0.0332,-1.2e-5 -0.06641,9e-6 -0.09961,0 h -0.0059 c 0.01946,-0.101041 0.03105,-0.204117 0.04102,-0.308594 -0.05239,-0.08707 -0.09488,-0.163698 -0.134766,-0.234375 -0.103651,0.0077 -0.207193,0.01679 -0.310547,0.02344 -0.28538,5.41e-4 0.03941,0.01114 -0.458984,-0.19336 0.02222,0.03305 0.03899,0.05731 0.05078,0.07422 0.03235,0.0063 0.06339,0.01101 0.05664,0.03516 -0.0061,0.02192 -0.02984,0.0108 -0.05664,-0.0039 0.02492,0.0067 0.01723,-0.0066 0,-0.03125 -0.01941,-0.0038 -0.03855,-0.0088 -0.05078,-0.01758 -0.04051,-0.02903 -0.155983,-0.119197 -0.109375,-0.101562 0.04488,0.01698 0.07363,0.03026 0.109375,0.04492 -0.106546,-0.158419 -0.287423,-0.502651 -0.128906,-1.109375 0.03844,-0.147126 0.291197,-0.09113 0.439453,-0.125 0.421592,-0.0963 1.006469,-0.189699 1.427734,-0.224609 0.307139,-0.02545 0.615948,-0.02735 0.923828,-0.04102 0.959559,0.0052 1.921231,0.02276 2.878907,0.08789 0.21498,0.01462 0.42902,0.02983 0.642578,0.05859 0.156654,0.0211 0.310952,0.06342 0.466797,0.08984 0.113734,0.01928 0.227493,0.03139 0.341796,0.04687 0.415168,0.0326 0.829333,-0.04481 1.244141,-0.04102 0.340725,0.0032 0.482788,0.02468 0.751953,0.06055 0.206087,-0.04911 0.146513,-0.03608 0.417969,-0.08594 0.11411,-0.02096 0.226559,-0.04907 0.341797,-0.0625 0.06021,-0.0071 0.121028,-4.72e-4 0.18164,0 0.04769,3.91e-4 0.170069,-0.03732 0.142579,0.002 -0.0068,0.0096 -0.01606,0.01521 -0.02539,0.02148 0.02663,-0.0079 0.05303,-0.01716 0.08008,-0.02344 0.03037,-0.007 0.06258,-0.0049 0.09375,-0.0059 0.06479,-0.0019 0.12854,-0.004 0.19336,-0.0039 0.40229,4e-4 0.805391,0.01744 1.207031,0.03906 0.127773,0.02079 0.255946,0.03646 0.382812,0.06055 v -5 z m 20.980469,15.291016 c 0.02406,-0.05829 0.04765,-0.132238 0.07031,-0.220704 -0.130872,0.01388 -0.213572,0.0098 -0.263672,-0.0059 -0.01008,0.06095 -0.02309,0.118422 -0.03906,0.171875 0.07358,0.02321 0.149476,0.04185 0.232422,0.05469 z m -1.482422,-8.964844 c 0.01398,0.0027 0.02917,0.0043 0.04297,0.0078 0.01463,0.0037 0.03282,0.0153 0.05078,0.02539 -0.01816,-0.0053 -0.04755,-0.01534 -0.09375,-0.0332 z m 10.576172,8.050781 c 0.01491,0.0932 0.03664,0.189481 0.04102,0.277344 0.06043,0.05882 0.125691,0.118805 0.199219,0.1875 -0.0152,-0.06539 -0.09996,-0.140415 -0.240234,-0.464844 z m 0.277343,0.552735 c -0.01276,0.01951 -0.03253,0.03971 -0.05469,0.06055 0.09612,0.06943 0.102687,0.05893 0.05469,-0.06055 z m -9.304687,3.333984 c 0.01379,-3.11e-4 0.02741,-5.37e-4 0.04102,0 0.537335,0.02122 0.923782,0.684048 0.285156,1.113281 h 0.439453 c 0.982357,0 1.293146,-0.0083 2.287109,0.02344 0.868484,0.02769 1.734451,0.0933 2.601563,0.144531 0.28348,0.01795 0.56488,-0.0057 0.847656,-0.02148 0.05041,-0.0029 0.101918,-0.0053 0.152344,-0.0078 h 0.002 c 0.0019,-9.7e-5 0.0039,9.5e-5 0.0059,0 0.02129,-0.0011 0.0614,-0.02319 0.0625,-0.002 0.01064,0.21331 0.0098,0.426975 0.0059,0.640625 0.174389,0.0077 0.34397,0.02707 0.515625,0.08984 0.07639,0.02794 0.143126,0.07686 0.214843,0.115234 0.501337,0.375758 0.33466,0.801943 -0.08594,1.103516 -0.02008,0.0144 -0.0417,0.02473 -0.06445,0.0332 0.05068,0.308239 0.02979,0.630896 0.05859,0.943359 -0.83027,0.263774 -1.682388,0.473247 -2.554688,0.529297 -0.300539,0.01931 -0.601254,0.01118 -0.902344,0.01758 -1.026244,0.01447 -2.030362,-0.200855 -3.027343,-0.414062 -0.335014,-0.07164 -0.6684,-0.142544 -1.001953,-0.220704 -0.842269,-0.197352 -0.693924,-0.178487 -0.802735,-0.199218 -0.03375,0.0053 -0.06783,0.0102 -0.101562,0.01563 -0.261021,0.04192 -0.501337,0.123227 -0.744141,-0.144531 -0.471346,-0.519794 -0.106463,-0.84205 0.353516,-1.111329 0.04881,-0.02858 0.105444,-0.02942 0.164062,-0.02344 -0.0026,-0.0313 -0.0049,-0.06398 -0.0059,-0.09766 -0.006,-0.208091 -0.03424,-0.417493 -0.01758,-0.625 0.0306,-0.381128 0.143654,-0.838463 0.33789,-1.175782 0.08075,-0.140241 0.203338,-0.250789 0.304688,-0.376953 0.195772,-0.243705 0.421996,-0.344947 0.628906,-0.349609 z m -1.302734,3.820312 c -0.0032,0.0072 -0.01614,0.02618 -0.0098,0.02148 0.0087,-0.0064 0.01849,-0.01135 0.02734,-0.01758 -0.0095,-0.0017 -0.0076,-0.0021 -0.01758,-0.0039 z" />
    </clipPath>
    <clipPath
       clipPathUnits="userSpaceOnUse"
       id="clipPath696">
      <circle
         style="fill:#398000;stroke-width:3.78845;paint-order:stroke fill markers"
         id="circle698"
         cx="34.545086"
         cy="28.913137"
         r="10.911828" />
    </clipPath>
  </defs>
  <sodipodi:namedview
     id="namedview9964"
     pagecolor="#ffffff"
     bordercolor="#000000"
     borderopacity="0.25"
     inkscape:showpageshadow="2"
     inkscape:pageopacity="0.0"
     inkscape:pagecheckerboard="0"
     inkscape:deskcolor="#d1d1d1"
     showgrid="false"
     inkscape:zoom="24.365722"
     inkscape:cx="29.836998"
     inkscape:cy="26.020161"
     inkscape:window-width="2560"
     inkscape:window-height="1377"
     inkscape:window-x="4472"
     inkscape:window-y="-8"
     inkscape:window-maximized="1"
     inkscape:current-layer="svg9962" />
  <path
     id="path9960"
     style="fill:#800080;fill-opacity:1;stroke:none;stroke-width:0.898517;stroke-opacity:1"
     d="M 12.978516 5.6835938 C 12.269938 5.6835938 11.650575 5.9570188 11.119141 6.5039062 C 10.587706 7.0507937 10.322266 7.6887852 10.322266 8.4179688 L 10.322266 26.005859 A 12.209775 13.728302 0 0 1 12.978516 25.617188 L 12.978516 8.4179688 L 36.007812 8.4179688 L 36.007812 39.408203 L 25.275391 39.408203 A 12.209775 13.728302 0 0 1 24.990234 42.142578 L 36.007812 42.142578 C 36.71639 42.142578 37.335756 41.869157 37.867188 41.322266 C 38.398617 40.775397 38.666016 40.137385 38.666016 39.408203 L 38.666016 8.4179688 C 38.666016 7.6887852 38.398626 7.0507937 37.867188 6.5039062 C 37.335756 5.9570188 36.71639 5.6835938 36.007812 5.6835938 L 12.978516 5.6835938 z " />
  <path
     d="m 20.479042,20.821557 q -3.45,0 -5.625,-2.175 -2.175,-2.175 -2.175,-5.625 0,-3.4500001 2.175,-5.6250001 2.175,-2.175 5.625,-2.175 3.45,0 5.625,2.175 2.175,2.175 2.175,5.6250001 0,3.45 -2.175,5.625 -2.175,2.175 -5.625,2.175 z m -16.3000001,16.65 v -5 q 0,-1.9 0.95,-3.35 0.95,-1.45 2.6,-2.25 3.6000001,-1.6 6.7500001,-2.3 3.15,-0.7 6,-0.7 h 1.35 q -0.35,0.7 -0.575,1.55 -0.225,0.85 -0.325,1.85 h -0.4 q -2.85,0 -5.625,0.6 -2.775,0.6 -5.7250001,2.05 -0.8,0.4 -1.2,1.125 -0.4,0.725 -0.4,1.475 v 1.55 H 20.929042 q 0.25,1 0.7,1.85 0.45,0.85 1,1.55 z m 29.8000001,2.05 -0.5,-3.35 q -0.85,-0.2 -1.7,-0.675 -0.85,-0.475 -1.4,-1.075 l -2.8,0.65 -1.4,-2.3 2.4,-2.25 q -0.1,-0.4 -0.1,-1.175 0,-0.775 0.1,-1.175 l -2.4,-2.25 1.4,-2.3 2.8,0.6 q 0.55,-0.55 1.4,-1.025 0.85,-0.475 1.7,-0.725 l 0.5,-3.35 h 2.9 l 0.5,3.35 q 0.85,0.25 1.7,0.725 0.85,0.475 1.45,1.025 l 2.75,-0.6 1.4,2.3 -2.4,2.25 q 0.1,0.4 0.1,1.175 0,0.775 -0.1,1.175 l 2.4,2.25 -1.4,2.3 -2.75,-0.65 q -0.6,0.6 -1.45,1.075 -0.85,0.475 -1.7,0.675 l -0.5,3.35 z m 1.45,-6.25 q 1.75,0 2.85,-1.075 1.1,-1.075 1.1,-2.875 0,-1.75 -1.1,-2.825 -1.1,-1.075 -2.85,-1.075 -1.75,0 -2.85,1.075 -1.1,1.075 -1.1,2.825 0,1.8 1.1,2.875 1.1,1.075 2.85,1.075 z m -14.95,-15.85 q 1.9,0 3.15,-1.25 1.25,-1.25 1.25,-3.15 0,-1.9 -1.25,-3.1500001 -1.25,-1.25 -3.15,-1.25 -1.9,0 -3.15,1.25 -1.25,1.2500001 -1.25,3.1500001 0,1.9 1.25,3.15 1.25,1.25 3.15,1.25 z m 0,-4.4 z m 0.45,21.05 z"
     id="path15608"
     clip-path="url(#clipPath696)"
     transform="matrix(0.80844709,0,0,0.81014525,-11.114852,10.188732)"
     style="display:inline;fill:#066adf;fill-opacity:1" />
</svg>
