<?xml version="1.0" encoding="UTF-8" standalone="no"?>
<svg
   enable-background="new 0 0 24 24"
   height="24px"
   viewBox="0 0 24 24"
   width="24px"
   fill="#000000"
   version="1.1"
   id="svg22"
   sodipodi:docname="calculate_black_24dp.svg"
   inkscape:version="1.2.1 (9c6d41e410, 2022-07-14)"
   inkscape:export-filename="calculate_black_24dp.png"
   inkscape:export-xdpi="64"
   inkscape:export-ydpi="64"
   xmlns:inkscape="http://www.inkscape.org/namespaces/inkscape"
   xmlns:sodipodi="http://sodipodi.sourceforge.net/DTD/sodipodi-0.dtd"
   xmlns="http://www.w3.org/2000/svg"
   xmlns:svg="http://www.w3.org/2000/svg">
  <defs
     id="defs26" />
  <sodipodi:namedview
     id="namedview24"
     pagecolor="#ffffff"
     bordercolor="#000000"
     borderopacity="0.25"
     inkscape:showpageshadow="2"
     inkscape:pageopacity="0.0"
     inkscape:pagecheckerboard="0"
     inkscape:deskcolor="#d1d1d1"
     showgrid="false"
     inkscape:zoom="34.458333"
     inkscape:cx="12.01451"
     inkscape:cy="12.029021"
     inkscape:window-width="1920"
     inkscape:window-height="1002"
     inkscape:window-x="-8"
     inkscape:window-y="-8"
     inkscape:window-maximized="1"
     inkscape:current-layer="svg22" />
  <g
     id="g4">
    <rect
       fill="none"
       height="24"
       width="24"
       id="rect2" />
  </g>
  <g
     id="g20"
     style="stroke:none;stroke-opacity:1;fill:#eda211;fill-opacity:1">
    <g
       id="g18"
       style="stroke:none;stroke-opacity:1;fill:#eda211;fill-opacity:1">
      <path
         d="M19,3H5C3.9,3,3,3.9,3,5v14c0,1.1,0.9,2,2,2h14c1.1,0,2-0.9,2-2V5C21,3.9,20.1,3,19,3z M19,19H5V5h14V19z"
         id="path6"
         style="stroke:none;stroke-opacity:1;fill:#eda211;fill-opacity:1" />
      <rect
         height="1.5"
         width="5"
         x="6.25"
         y="7.72"
         id="rect8"
         style="stroke:none;stroke-opacity:1;fill:#eda211;fill-opacity:1" />
      <rect
         height="1.5"
         width="5"
         x="13"
         y="15.75"
         id="rect10"
         style="stroke:none;stroke-opacity:1;fill:#eda211;fill-opacity:1" />
      <rect
         height="1.5"
         width="5"
         x="13"
         y="13.25"
         id="rect12"
         style="stroke:none;stroke-opacity:1;fill:#eda211;fill-opacity:1" />
      <polygon
         points="8,18 9.5,18 9.5,16 11.5,16 11.5,14.5 9.5,14.5 9.5,12.5 8,12.5 8,14.5 6,14.5 6,16 8,16"
         id="polygon14"
         style="stroke:none;stroke-opacity:1;fill:#eda211;fill-opacity:1" />
      <polygon
         points="14.09,10.95 15.5,9.54 16.91,10.95 17.97,9.89 16.56,8.47 17.97,7.06 16.91,6 15.5,7.41 14.09,6 13.03,7.06 14.44,8.47 13.03,9.89"
         id="polygon16"
         style="stroke:none;stroke-opacity:1;fill:#eda211;fill-opacity:1" />
    </g>
  </g>
</svg>
